<svg width="512" height="512" viewBox="0 0 512 512" fill="none" xmlns="http://www.w3.org/2000/svg">
  <rect width="512" height="512" rx="116" fill="#F3F1E8"/>
  <rect x="94" y="86" width="324" height="340" rx="64" fill="#242422"/>
  <path d="M166 344V178C166 158.118 182.118 142 202 142H312C331.882 142 348 158.118 348 178V344C348 363.882 331.882 380 312 380H202C182.118 380 166 363.882 166 344Z" fill="#F3F1E8"/>
  <path d="M204 218H308" stroke="#242422" stroke-width="22" stroke-linecap="round"/>
  <path d="M204 268H292" stroke="#242422" stroke-width="22" stroke-linecap="round"/>
  <path d="M204 318H278" stroke="#242422" stroke-width="22" stroke-linecap="round"/>
  <path d="M348 250C348 213.549 318.451 184 282 184H270" stroke="#8EA21F" stroke-width="34" stroke-linecap="round"/>
  <circle cx="348" cy="250" r="40" fill="#8EA21F"/>
  <path d="M334 250L345 261L365 236" stroke="#F3F1E8" stroke-width="13" stroke-linecap="round" stroke-linejoin="round"/>
</svg>
